<?xml version="1.0" standalone="no"?>
<!DOCTYPE svg PUBLIC "-//W3C//DTD SVG 20010904//EN"
 "http://www.w3.org/TR/2001/REC-SVG-20010904/DTD/svg10.dtd">
<svg version="1.0" xmlns="http://www.w3.org/2000/svg"
 width="512.000000pt" height="512.000000pt" viewBox="0 0 512.000000 512.000000"
 preserveAspectRatio="xMidYMid meet">
<metadata>
Created by potrace 1.14, written by Peter Selinger 2001-2017
</metadata>
<g transform="translate(0.000000,512.000000) scale(0.100000,-0.100000)"
fill="#000000" stroke="none">
<path d="M3835 4781 c-3 -6 4 -15 15 -21 27 -15 50 -62 50 -104 0 -36 -40 -96
-65 -96 -9 0 -12 -16 -10 -57 2 -32 6 -155 9 -273 4 -118 9 -232 12 -252 5
-35 8 -38 40 -38 40 0 38 -34 23 300 l-11 249 36 31 c63 56 58 114 -15 202
-45 53 -74 74 -84 59z"/>
<path d="M1194 4740 c26 -29 36 -49 36 -73 0 -40 -31 -93 -60 -102 -21 -7 -21
-9 -15 -167 4 -89 8 -186 10 -217 2 -31 5 -98 6 -148 l2 -93 38 0 38 0 -5 108
c-3 59 -9 181 -13 272 l-7 165 38 36 c33 31 38 42 38 81 0 45 -3 50 -80 151
-12 15 -31 27 -42 27 -18 0 -16 -5 16 -40z"/>
<path d="M3690 4588 c0 -19 36 -52 44 -40 3 5 -6 20 -19 32 -19 18 -25 20 -25
8z"/>
<path d="M1020 4576 c0 -18 36 -40 44 -27 3 5 -5 16 -19 25 -21 14 -25 14 -25
2z"/>
<path d="M1310 3947 c0 -8 9 -22 20 -32 17 -15 20 -31 20 -98 0 -71 2 -78 18
-72 9 4 25 10 35 12 13 4 17 16 17 48 0 35 -5 48 -25 63 -14 11 -25 26 -25 34
0 14 -40 58 -53 58 -4 0 -7 -6 -7 -13z"/>
<path d="M3980 3953 c0 -4 9 -16 20 -28 19 -21 20 -33 18 -227 l-3 -206 -135
74 c-164 90 -329 172 -355 177 -11 2 -38 11 -59 20 -22 10 -44 16 -50 13 -6
-2 5 -10 24 -17 67 -24 305 -148 375 -195 276 -184 446 -386 526 -626 16 -47
32 -120 35 -161 l7 -75 44 -5 c24 -2 53 -13 63 -22 19 -18 20 -35 20 -660 0
-727 6 -679 -80 -693 l-45 -8 -2 -338 c-1 -317 -3 -341 -21 -365 -27 -38 -117
-78 -197 -91 -48 -7 -593 -10 -1760 -8 -1594 3 -1693 4 -1734 21 -65 26 -83
37 -112 64 -22 20 -27 22 -32 9 -7 -18 43 -64 85 -78 19 -7 34 -24 47 -53 24
-54 80 -96 169 -127 l67 -23 1740 0 c1658 0 1743 1 1800 18 87 27 150 70 174
121 20 40 21 60 21 352 l0 310 42 19 c23 11 51 33 63 48 20 28 20 39 20 681 0
739 6 687 -83 729 -44 21 -47 25 -54 73 -10 67 -54 206 -85 269 -75 150 -203
303 -360 429 l-73 58 0 204 0 203 -30 31 c-16 17 -30 35 -30 40 0 5 -10 18
-22 30 -22 20 -38 26 -38 13z"/>
<path d="M3280 3820 c0 -5 5 -10 10 -10 6 0 10 5 10 10 0 6 -4 10 -10 10 -5 0
-10 -4 -10 -10z"/>
<path d="M3355 3800 c-3 -5 -1 -11 5 -15 5 -3 10 -3 10 1 0 3 7 1 15 -6 8 -7
15 -8 15 -4 0 14 -38 35 -45 24z"/>
<path d="M2255 3189 c-101 -10 -145 -18 -295 -53 -281 -66 -539 -204 -707
-379 -124 -130 -187 -235 -222 -373 -23 -92 -24 -124 -22 -714 l1 -425 1442 0
1443 1 3 509 c2 542 0 580 -47 705 -123 328 -500 596 -980 696 -171 35 -441
50 -616 33z m-263 -686 c10 -9 18 -24 18 -33 0 -20 19 -30 56 -30 13 0 38 -13
55 -28 27 -24 33 -37 37 -85 2 -31 8 -57 13 -57 20 0 49 -66 49 -112 0 -54
-33 -102 -87 -124 -28 -12 -33 -19 -33 -47 0 -42 -15 -57 -60 -57 -20 0 -41
-5 -47 -11 -6 -6 -23 -9 -39 -7 -21 2 -33 12 -44 35 -14 29 -18 32 -51 27 -66
-11 -94 54 -44 100 l26 24 -16 78 c-23 111 -22 111 -55 118 -64 12 -57 96 10
111 26 6 30 11 30 39 0 41 15 56 60 56 19 0 42 5 50 10 23 15 51 12 72 -7z
m968 -18 c19 -38 28 -45 62 -45 16 0 41 -12 59 -28 27 -24 33 -37 37 -85 2
-31 8 -57 13 -57 20 0 49 -66 49 -112 0 -54 -33 -102 -87 -124 -28 -12 -33
-19 -33 -47 0 -42 -15 -57 -60 -57 -20 0 -41 -5 -47 -11 -6 -6 -23 -9 -39 -7
-21 2 -33 12 -44 35 -14 29 -18 32 -51 27 -66 -11 -97 64 -44 103 l26 18 -16
75 c-8 41 -17 85 -20 96 -3 14 -15 24 -35 28 -64 12 -57 96 10 111 26 6 30 11
30 39 0 41 15 56 60 56 19 0 42 5 50 10 27 18 63 7 80 -25z"/>
<path d="M1950 2300 c0 -23 31 -27 49 -7 14 17 4 27 -26 27 -16 0 -23 -6 -23
-20z"/>
<path d="M1980 2145 c0 -28 15 -31 55 -13 39 18 32 38 -15 38 -36 0 -40 -2
-40 -25z"/>
<path d="M2910 2300 c0 -23 31 -27 49 -7 14 17 4 27 -26 27 -16 0 -23 -6 -23
-20z"/>
<path d="M2940 2145 c0 -28 15 -31 55 -13 39 18 32 38 -15 38 -36 0 -40 -2
-40 -25z"/>
<path d="M392 1343 c2 -10 20 -26 41 -37 33 -16 42 -17 65 -6 l27 13 -44 8
c-24 5 -51 15 -61 24 -22 20 -32 19 -28 -2z"/>
</g>
</svg>
